<svg width="30" height="30" fill="#000000" viewBox="0 0 24 24" xmlns="http://www.w3.org/2000/svg">
  <path d="m22.003 11.95-5.799-2.084-2.424-3.043A2.242 2.242 0 0 0 12.04 6H6.043a2.249 2.249 0 0 0-1.86.984L2.15 9.97a3.741 3.741 0 0 0-.65 2.11V18a.75.75 0 0 0 .75.75h1.607a2.986 2.986 0 0 0 5.786 0h4.714a2.986 2.986 0 0 0 5.786 0h1.607a.75.75 0 0 0 .75-.75v-5.344a.75.75 0 0 0-.497-.706ZM6.75 19.5a1.5 1.5 0 1 1 0-3 1.5 1.5 0 0 1 0 3Zm10.5 0a1.5 1.5 0 1 1 0-3 1.5 1.5 0 0 1 0 3ZM21 17.25h-.857a2.985 2.985 0 0 0-5.786 0H9.643a2.985 2.985 0 0 0-5.786 0H3v-5.17c0-.451.136-.893.39-1.266l2.033-2.986a.75.75 0 0 1 .62-.328h5.997a.745.745 0 0 1 .574.266l2.55 3.201a.751.751 0 0 0 .333.24L21 13.183v4.066Z"></path>
</svg>